<svg width="35" height="35" viewBox="0 0 35 35" fill="none" xmlns="http://www.w3.org/2000/svg">
<path d="M24.6697 7.11704C24.6697 7.13139 24.6697 7.13139 24.6697 7.14574C24.311 7.13139 23.9522 7.11704 23.5648 7.11704H12.5161L14.0514 5.59605C15.4576 4.17551 17.0073 2.86975 18.801 2.86975C20.6089 2.86975 22.1586 4.17551 23.5648 5.59605L24.3683 6.39959C24.5692 6.58613 24.6697 6.84441 24.6697 7.11704Z" fill="white"/>
<path d="M29.9045 18.8965C30.4641 18.8965 30.9089 18.4373 30.9089 17.8634V16.6007C30.9089 10.9616 29.1871 9.25403 23.5623 9.25403H14.5224H10.8779C5.25306 9.25403 3.53119 10.9759 3.53119 16.6007V17.2177C3.53119 17.7916 3.97601 18.2364 4.53562 18.2364C5.74093 18.2364 6.70231 19.2122 6.70231 20.4031C6.70231 21.5941 5.74093 22.5842 4.53562 22.5842C3.97601 22.5842 3.53119 23.029 3.53119 23.603V24.22C3.53119 29.8591 5.25306 31.5666 10.8779 31.5666H14.5081H23.5479C29.1727 31.5666 30.8946 29.8448 30.8946 24.22C30.8946 23.6604 30.4498 23.2012 29.8902 23.2012C28.6849 23.2012 27.7235 22.2398 27.7235 21.0488C27.7378 19.8579 28.6992 18.8965 29.9045 18.8965ZM15.5269 27.0611C15.5269 27.6207 15.0677 28.0798 14.5081 28.0798C13.9485 28.0798 13.4894 27.6207 13.4894 27.0611V23.2155C13.4894 22.6559 13.9485 22.1968 14.5081 22.1968C15.0677 22.1968 15.5269 22.6559 15.5269 23.2155V27.0611ZM15.5269 17.6051C15.5269 18.1647 15.0677 18.6239 14.5081 18.6239C13.9485 18.6239 13.4894 18.1647 13.4894 17.6051V13.7596C13.4894 13.2 13.9485 12.7408 14.5081 12.7408C15.0677 12.7408 15.5269 13.2 15.5269 13.7596V17.6051Z" fill="white"/>
</svg>
